<svg xmlns="http://www.w3.org/2000/svg" viewBox="0 0 1408 812" width="1408" height="812">
<defs>
<marker id="arrow" viewBox="0 0 10 10" refX="8.5" refY="5" markerWidth="5.2" markerHeight="5.2" orient="auto-start-reverse"><path d="M 0 1 L 9 5 L 0 9 z" fill="#1c1c1c"/></marker>
<marker id="arrowblue" viewBox="0 0 10 10" refX="8.5" refY="5" markerWidth="5.2" markerHeight="5.2" orient="auto-start-reverse"><path d="M 0 1 L 9 5 L 0 9 z" fill="#3c78b4"/></marker>
<marker id="arroworg" viewBox="0 0 10 10" refX="8.5" refY="5" markerWidth="5.2" markerHeight="5.2" orient="auto-start-reverse"><path d="M 0 1 L 9 5 L 0 9 z" fill="#a85a20"/></marker>
<marker id="arrowgrn" viewBox="0 0 10 10" refX="8.5" refY="5" markerWidth="5.2" markerHeight="5.2" orient="auto-start-reverse"><path d="M 0 1 L 9 5 L 0 9 z" fill="#3f8f56"/></marker>
<marker id="arrowred" viewBox="0 0 10 10" refX="8.5" refY="5" markerWidth="5.2" markerHeight="5.2" orient="auto-start-reverse"><path d="M 0 1 L 9 5 L 0 9 z" fill="#bf3b2b"/></marker>
</defs>
<rect x="0" y="0" width="1408" height="812" fill="white"/>
<rect x="24" y="48" width="190" height="318" rx="14" fill="#f1f1ef" stroke="#f1f1ef" stroke-width="0"/>
<text x="119.0" y="82" font-family="DejaVu Sans, Helvetica, Arial, sans-serif" font-size="24" font-weight="bold" font-style="normal" fill="#1c1c1c" text-anchor="middle">Input</text>
<rect x="246" y="48" width="274" height="318" rx="14" fill="#f1f1ef" stroke="#f1f1ef" stroke-width="0"/>
<text x="383.0" y="82" font-family="DejaVu Sans, Helvetica, Arial, sans-serif" font-size="24" font-weight="bold" font-style="normal" fill="#1c1c1c" text-anchor="middle">Drafter</text>
<rect x="552" y="48" width="260" height="318" rx="14" fill="#f1f1ef" stroke="#f1f1ef" stroke-width="0"/>
<text x="682.0" y="82" font-family="DejaVu Sans, Helvetica, Arial, sans-serif" font-size="24" font-weight="bold" font-style="normal" fill="#1c1c1c" text-anchor="middle">VAE +</text>
<text x="682.0" y="112" font-family="DejaVu Sans, Helvetica, Arial, sans-serif" font-size="24" font-weight="bold" font-style="normal" fill="#1c1c1c" text-anchor="middle">Reward Router</text>
<rect x="844" y="48" width="240" height="318" rx="14" fill="#f1f1ef" stroke="#f1f1ef" stroke-width="0"/>
<text x="964.0" y="82" font-family="DejaVu Sans, Helvetica, Arial, sans-serif" font-size="24" font-weight="bold" font-style="normal" fill="#1c1c1c" text-anchor="middle">Target</text>
<text x="964.0" y="112" font-family="DejaVu Sans, Helvetica, Arial, sans-serif" font-size="24" font-weight="bold" font-style="normal" fill="#1c1c1c" text-anchor="middle">(reject path)</text>
<rect x="1116" y="48" width="268" height="318" rx="14" fill="#f1f1ef" stroke="#f1f1ef" stroke-width="0"/>
<text x="1250.0" y="82" font-family="DejaVu Sans, Helvetica, Arial, sans-serif" font-size="24" font-weight="bold" font-style="normal" fill="#1c1c1c" text-anchor="middle">Output</text>
<text x="18" y="360" font-family="DejaVu Sans, Helvetica, Arial, sans-serif" font-size="24" font-weight="bold" font-style="normal" fill="#1c1c1c" text-anchor="start">(a)</text>
<text x="119" y="144" font-family="DejaVu Sans, Helvetica, Arial, sans-serif" font-size="14" font-weight="normal" font-style="normal" fill="#4f4f4f" text-anchor="middle">Block</text>
<text x="70.5" y="166" font-family="DejaVu Sans, Helvetica, Arial, sans-serif" font-size="14" font-weight="normal" fill="#4f4f4f" text-anchor="start"><tspan  font-style="italic">b</tspan><tspan  font-style="italic"> = 0, 1, …, 8</tspan></text>
<rect x="46" y="216" width="146" height="76" rx="8" fill="#ffffff" stroke="#9a9a9a" stroke-width="1.6"/>
<text x="119" y="244" font-family="DejaVu Sans, Helvetica, Arial, sans-serif" font-size="17" font-weight="bold" font-style="normal" fill="#1c1c1c" text-anchor="middle">Text</text>
<text x="119" y="266" font-family="DejaVu Sans, Helvetica, Arial, sans-serif" font-size="17" font-weight="bold" font-style="normal" fill="#1c1c1c" text-anchor="middle">Prompt</text>
<text x="113.6" y="286" font-family="DejaVu Sans, Helvetica, Arial, sans-serif" font-size="17" font-weight="normal" fill="#1c1c1c" text-anchor="start"><tspan  font-style="italic">p</tspan></text>
<rect x="268" y="114" width="148" height="158" rx="10" fill="#cfe0f3" stroke="#3c78b4" stroke-width="2.0"/>
<text x="342.0" y="142" font-family="DejaVu Sans, Helvetica, Arial, sans-serif" font-size="20" font-weight="bold" font-style="normal" fill="#1d4e7d" text-anchor="middle">Drafter</text>
<text x="310.8" y="164" font-family="DejaVu Sans, Helvetica, Arial, sans-serif" font-size="14" font-weight="normal" fill="#1d4e7d" text-anchor="start"><tspan  font-style="italic">D</tspan><tspan  font-style="italic">  (1.3B)</tspan></text>
<line x1="310.0" y1="188" x2="335.0" y2="179" stroke="#7fa8cf" stroke-width="1.5"/>
<line x1="310.0" y1="188" x2="335.0" y2="200" stroke="#7fa8cf" stroke-width="1.5"/>
<line x1="310.0" y1="188" x2="335.0" y2="221" stroke="#7fa8cf" stroke-width="1.5"/>
<line x1="310.0" y1="212" x2="335.0" y2="179" stroke="#7fa8cf" stroke-width="1.5"/>
<line x1="310.0" y1="212" x2="335.0" y2="200" stroke="#7fa8cf" stroke-width="1.5"/>
<line x1="310.0" y1="212" x2="335.0" y2="221" stroke="#7fa8cf" stroke-width="1.5"/>
<line x1="335.0" y1="179" x2="366.0" y2="188" stroke="#7fa8cf" stroke-width="1.5"/>
<line x1="335.0" y1="179" x2="366.0" y2="212" stroke="#7fa8cf" stroke-width="1.5"/>
<line x1="335.0" y1="200" x2="366.0" y2="188" stroke="#7fa8cf" stroke-width="1.5"/>
<line x1="335.0" y1="200" x2="366.0" y2="212" stroke="#7fa8cf" stroke-width="1.5"/>
<line x1="335.0" y1="221" x2="366.0" y2="188" stroke="#7fa8cf" stroke-width="1.5"/>
<line x1="335.0" y1="221" x2="366.0" y2="212" stroke="#7fa8cf" stroke-width="1.5"/>
<circle cx="310.0" cy="188" r="5.2" fill="#ffffff" stroke="#3c78b4" stroke-width="1.7"/>
<circle cx="310.0" cy="212" r="5.2" fill="#ffffff" stroke="#3c78b4" stroke-width="1.7"/>
<circle cx="335.0" cy="179" r="5.2" fill="#ffffff" stroke="#3c78b4" stroke-width="1.7"/>
<circle cx="335.0" cy="200" r="5.2" fill="#ffffff" stroke="#3c78b4" stroke-width="1.7"/>
<circle cx="335.0" cy="221" r="5.2" fill="#ffffff" stroke="#3c78b4" stroke-width="1.7"/>
<circle cx="366.0" cy="188" r="5.2" fill="#ffffff" stroke="#3c78b4" stroke-width="1.7"/>
<circle cx="366.0" cy="212" r="5.2" fill="#ffffff" stroke="#3c78b4" stroke-width="1.7"/>
<text x="342.0" y="244" font-family="DejaVu Sans, Helvetica, Arial, sans-serif" font-size="13" font-weight="normal" font-style="normal" fill="#1d4e7d" text-anchor="middle">4 denoising</text>
<text x="342.0" y="262" font-family="DejaVu Sans, Helvetica, Arial, sans-serif" font-size="13" font-weight="normal" font-style="normal" fill="#1d4e7d" text-anchor="middle">steps</text>
<line x1="192" y1="286" x2="258" y2="286" stroke="#3c78b4" stroke-width="2.0" marker-end="url(#arrowblue)"/>
<text x="222" y="264" font-family="DejaVu Sans, Helvetica, Arial, sans-serif" font-size="13" font-weight="normal" font-style="normal" fill="#4f4f4f" text-anchor="middle">noise</text>
<text x="215.1" y="284" font-family="DejaVu Sans, Helvetica, Arial, sans-serif" font-size="13" font-weight="normal" fill="#4f4f4f" text-anchor="start"><tspan  font-style="italic">z</tspan><tspan dy="4" font-size="11" font-style="italic">b</tspan></text>
<path d="M 416 158 L 500 158 L 500 144 L 536 144" fill="none" stroke="#3c78b4" stroke-width="2.0" marker-end="url(#arrowblue)"/>
<text x="470" y="186" font-family="DejaVu Sans, Helvetica, Arial, sans-serif" font-size="13" font-weight="normal" font-style="normal" fill="#4f4f4f" text-anchor="middle">draft block</text>
<text x="461.8" y="206" font-family="DejaVu Sans, Helvetica, Arial, sans-serif" font-size="16" font-weight="normal" fill="#4f4f4f" text-anchor="start"><tspan  font-style="italic">x̂</tspan><tspan dy="4" font-size="11" font-style="italic">b</tspan></text>
<rect x="274" y="306" width="15" height="22" rx="3" fill="#7fb0dd" stroke="#3c78b4" stroke-width="1.4"/>
<rect x="291" y="306" width="15" height="22" rx="3" fill="#bcd6ee" stroke="#3c78b4" stroke-width="1.4"/>
<rect x="308" y="306" width="15" height="22" rx="3" fill="#bcd6ee" stroke="#3c78b4" stroke-width="1.4"/>
<rect x="325" y="306" width="15" height="22" rx="3" fill="#bcd6ee" stroke="#3c78b4" stroke-width="1.4"/>
<rect x="342" y="306" width="15" height="22" rx="3" fill="#bcd6ee" stroke="#3c78b4" stroke-width="1.4"/>
<rect x="359" y="306" width="15" height="22" rx="3" fill="#bcd6ee" stroke="#3c78b4" stroke-width="1.4"/>
<rect x="376" y="306" width="15" height="22" rx="3" fill="#bcd6ee" stroke="#3c78b4" stroke-width="1.4"/>
<rect x="393" y="306" width="15" height="22" rx="3" fill="#bcd6ee" stroke="#3c78b4" stroke-width="1.4"/>
<text x="342.0" y="346" font-family="DejaVu Sans, Helvetica, Arial, sans-serif" font-size="13" font-weight="normal" font-style="normal" fill="#4f4f4f" text-anchor="middle">KV Cache (Drafter)</text>
<ellipse cx="596" cy="136" rx="25" ry="8" fill="#f4c79b" stroke="#a85a20" stroke-width="1.7"/>
<rect x="571" y="136" width="50" height="28" fill="#f0b57f" stroke="none"/>
<line x1="571" y1="136" x2="571" y2="164" stroke="#a85a20" stroke-width="1.7"/>
<line x1="621" y1="136" x2="621" y2="164" stroke="#a85a20" stroke-width="1.7"/>
<ellipse cx="596" cy="164" rx="25" ry="8" fill="#e79a4f" stroke="#a85a20" stroke-width="1.7"/>
<text x="596" y="156" font-family="DejaVu Sans, Helvetica, Arial, sans-serif" font-size="13" font-weight="bold" font-style="normal" fill="#6b3c12" text-anchor="middle">VAE</text>
<text x="596" y="194" font-family="DejaVu Sans, Helvetica, Arial, sans-serif" font-size="13" font-weight="bold" font-style="normal" fill="#6b3c12" text-anchor="middle">Decode</text>
<rect x="646" y="124" width="22" height="38" rx="2" fill="#e4e4e4" stroke="#4a4a4a" stroke-width="1.6"/>
<rect x="649" y="130" width="16" height="26" fill="#9aa7b5"/>
<rect x="671" y="124" width="22" height="38" rx="2" fill="#e4e4e4" stroke="#4a4a4a" stroke-width="1.6"/>
<rect x="674" y="130" width="16" height="26" fill="#9aa7b5"/>
<rect x="696" y="124" width="22" height="38" rx="2" fill="#e4e4e4" stroke="#4a4a4a" stroke-width="1.6"/>
<rect x="699" y="130" width="16" height="26" fill="#9aa7b5"/>
<line x1="626" y1="144" x2="642" y2="144" stroke="#1c1c1c" stroke-width="1.8" marker-end="url(#arrow)"/>
<text x="682.0" y="180" font-family="DejaVu Sans, Helvetica, Arial, sans-serif" font-size="13" font-weight="normal" font-style="normal" fill="#4f4f4f" text-anchor="middle">F = 3 frames</text>
<path d="M 682.0 190 L 682.0 212" fill="none" stroke="#1c1c1c" stroke-width="1.8" marker-end="url(#arrow)"/>
<circle cx="698" cy="238" r="24" fill="#c0392b" stroke="#8f2a20" stroke-width="1.7"/>
<path d="M 686 262 L 676 288 L 698 276 L 720 288 L 710 262 Z" fill="#c0392b" stroke="#8f2a20" stroke-width="1.3"/>
<path d="M 698 223 l 5 10.5 11.5 1.9 -8.3 8 2 11.5 -10.2 -5.4 -10.2 5.4 2 -11.5 -8.3 -8 11.5 -1.9 z" fill="#ffffff"/>
<text x="698" y="306" font-family="DejaVu Sans, Helvetica, Arial, sans-serif" font-size="12" font-weight="bold" font-style="normal" fill="#8f2a20" text-anchor="middle">ImageReward</text>
<text x="645.3" y="340" font-family="DejaVu Sans, Helvetica, Arial, sans-serif" font-size="13" font-weight="normal" fill="#1c1c1c" text-anchor="start"><tspan  font-style="italic">q</tspan><tspan dy="4" font-size="11" font-style="italic">b</tspan><tspan dy="-4" font-style="italic"> = min</tspan><tspan dy="4" font-size="11" font-style="italic">i</tspan><tspan dy="-4" font-style="italic"> R(f</tspan><tspan dy="4" font-size="11" font-style="italic">i</tspan><tspan dy="-4" font-style="italic">, p)</tspan></text>
<polygon points="952,142 1004,188 952,234 900,188" fill="#ffffff" stroke="#8a8a8a" stroke-width="1.8"/>
<text x="926.5" y="192" font-family="DejaVu Sans, Helvetica, Arial, sans-serif" font-size="16" font-weight="normal" fill="#1c1c1c" text-anchor="start"><tspan  font-style="italic">q</tspan><tspan dy="4" font-size="12" font-style="italic">b</tspan><tspan dy="-4" font-style="italic"> ≥ τ</tspan></text>
<polygon points="952,142 1004,188 952,234 900,188" fill="#ffffff" stroke="#8a8a8a" stroke-width="1.8"/>
<text x="926.5" y="192" font-family="DejaVu Sans, Helvetica, Arial, sans-serif" font-size="16" font-weight="normal" fill="#1c1c1c" text-anchor="start"><tspan  font-style="italic">q</tspan><tspan dy="4" font-size="12" font-style="italic">b</tspan><tspan dy="-4" font-style="italic"> ≥ τ</tspan></text>
<path d="M 780 344 L 838 344 L 838 172 L 904 172" fill="none" stroke="#1c1c1c" stroke-width="1.8" marker-end="url(#arrow)"/>
<path d="M 1006 188 L 1108 188" fill="none" stroke="#3f8f56" stroke-width="3.2" marker-end="url(#arrowgrn)"/>
<text x="1022" y="166" font-family="DejaVu Sans, Helvetica, Arial, sans-serif" font-size="14" font-weight="bold" font-style="normal" fill="#3f8f56" text-anchor="middle">Accept</text>
<path d="M 1052 172 l 9 12 18 -24" fill="none" stroke="#3f8f56" stroke-width="3.6"/>
<path d="M 952 234 L 952 280" fill="none" stroke="#bf3b2b" stroke-width="3.2" marker-end="url(#arrowred)"/>
<text x="958" y="258" font-family="DejaVu Sans, Helvetica, Arial, sans-serif" font-size="14" font-weight="bold" font-style="normal" fill="#bf3b2b" text-anchor="start">Reject</text>
<path d="M 1030 244 l 20 20 M 1050 244 l -20 20" stroke="#bf3b2b" stroke-width="3.6"/>
<rect x="846" y="264" width="150" height="62" rx="10" fill="#e8964f" stroke="#a85a20" stroke-width="2.0"/>
<text x="864" y="290" font-family="DejaVu Sans, Helvetica, Arial, sans-serif" font-size="20" font-weight="bold" font-style="normal" fill="#ffffff" text-anchor="middle">Target</text>
<text x="838.1" y="310" font-family="DejaVu Sans, Helvetica, Arial, sans-serif" font-size="13" font-weight="normal" fill="#ffffff" text-anchor="start"><tspan  font-style="italic">T</tspan><tspan  font-style="italic">  (14B)</tspan></text>
<path d="M 938 286 L 956 277 L 974 286 L 956 295 Z" fill="#ffffff" stroke="#a85a20" stroke-width="1.2"/>
<path d="M 938 297 L 956 288 L 974 297 L 956 306 Z" fill="#ffffff" stroke="#a85a20" stroke-width="1.2"/>
<path d="M 938 308 L 956 299 L 974 308 L 956 317 Z" fill="#ffffff" stroke="#a85a20" stroke-width="1.2"/>
<path d="M 1080 268 L 1090 268 L 1090 348 L 1142 348" fill="none" stroke="#a85a20" stroke-width="1.8" marker-end="url(#arroworg)"/>
<text x="1250" y="114" font-family="DejaVu Sans, Helvetica, Arial, sans-serif" font-size="17" font-weight="bold" font-style="normal" fill="#1c1c1c" text-anchor="middle">KV Cache (Target)</text>
<rect x="1136" y="132" width="30" height="26" rx="4" fill="#4a4a4a"/>
<path d="M 1142 132 v -7 a 9 9 0 0 1 18 0 v 7" fill="none" stroke="#4a4a4a" stroke-width="3.6"/>
<circle cx="1151" cy="143" r="3.6" fill="#ffffff"/>
<rect x="1174" y="130" width="23" height="30" rx="3" fill="#7fb0dd" stroke="#3c78b4" stroke-width="1.4"/>
<rect x="1200" y="130" width="23" height="30" rx="3" fill="#bcd6ee" stroke="#3c78b4" stroke-width="1.4"/>
<rect x="1226" y="130" width="23" height="30" rx="3" fill="#7fb0dd" stroke="#3c78b4" stroke-width="1.4"/>
<rect x="1252" y="130" width="23" height="30" rx="3" fill="#bcd6ee" stroke="#3c78b4" stroke-width="1.4"/>
<rect x="1278" y="130" width="23" height="30" rx="3" fill="#efb27a" stroke="#a85a20" stroke-width="1.4"/>
<rect x="1304" y="130" width="23" height="30" rx="3" fill="#efb27a" stroke="#a85a20" stroke-width="1.4"/>
<rect x="1330" y="130" width="23" height="30" rx="3" fill="#efb27a" stroke="#a85a20" stroke-width="1.4"/>
<rect x="1150" y="218" width="40" height="52" rx="3" fill="#5b6b5e" stroke="#2f3a31" stroke-width="1.9"/>
<rect x="1155" y="225" width="30" height="38" fill="#8fa393"/>
<rect x="1194" y="218" width="40" height="52" rx="3" fill="#5b6b5e" stroke="#2f3a31" stroke-width="1.9"/>
<rect x="1199" y="225" width="30" height="38" fill="#8fa393"/>
<rect x="1238" y="218" width="40" height="52" rx="3" fill="#5b6b5e" stroke="#2f3a31" stroke-width="1.9"/>
<rect x="1243" y="225" width="30" height="38" fill="#8fa393"/>
<rect x="1282" y="218" width="40" height="52" rx="3" fill="#5b6b5e" stroke="#2f3a31" stroke-width="1.9"/>
<rect x="1287" y="225" width="30" height="38" fill="#8fa393"/>
<rect x="1150" y="276" width="40" height="52" rx="3" fill="#5b6b5e" stroke="#2f3a31" stroke-width="1.9"/>
<rect x="1155" y="283" width="30" height="38" fill="#8fa393"/>
<rect x="1194" y="276" width="40" height="52" rx="3" fill="#5b6b5e" stroke="#2f3a31" stroke-width="1.9"/>
<rect x="1199" y="283" width="30" height="38" fill="#8fa393"/>
<rect x="1238" y="276" width="40" height="52" rx="3" fill="#5b6b5e" stroke="#2f3a31" stroke-width="1.9"/>
<rect x="1243" y="283" width="30" height="38" fill="#8fa393"/>
<rect x="1282" y="276" width="40" height="52" rx="3" fill="#5b6b5e" stroke="#2f3a31" stroke-width="1.9"/>
<rect x="1287" y="283" width="30" height="38" fill="#8fa393"/>
<text x="1250" y="344" font-family="DejaVu Sans, Helvetica, Arial, sans-serif" font-size="14" font-weight="bold" font-style="normal" fill="#1c1c1c" text-anchor="middle">Output Video (27 frames)</text>
<rect x="892" y="334" width="182" height="26" rx="6" fill="#fdf6d8" stroke="#c9a227" stroke-width="1.4" stroke-dasharray="6,4"/>
<text x="983" y="351" font-family="DejaVu Sans, Helvetica, Arial, sans-serif" font-size="12" font-weight="bold" font-style="normal" fill="#7a5c00" text-anchor="middle">Block 0: always force-reject</text>
<rect x="24" y="400" width="190" height="318" rx="14" fill="#f1f1ef" stroke="#f1f1ef" stroke-width="0"/>
<text x="119.0" y="434" font-family="DejaVu Sans, Helvetica, Arial, sans-serif" font-size="24" font-weight="bold" font-style="normal" fill="#1c1c1c" text-anchor="middle">Input</text>
<rect x="246" y="400" width="274" height="318" rx="14" fill="#f1f1ef" stroke="#f1f1ef" stroke-width="0"/>
<text x="383.0" y="434" font-family="DejaVu Sans, Helvetica, Arial, sans-serif" font-size="24" font-weight="bold" font-style="normal" fill="#1c1c1c" text-anchor="middle">Drafter</text>
<rect x="552" y="400" width="260" height="318" rx="14" fill="#f1f1ef" stroke="#f1f1ef" stroke-width="0"/>
<text x="682.0" y="434" font-family="DejaVu Sans, Helvetica, Arial, sans-serif" font-size="24" font-weight="bold" font-style="normal" fill="#1c1c1c" text-anchor="middle">VAE +</text>
<text x="682.0" y="464" font-family="DejaVu Sans, Helvetica, Arial, sans-serif" font-size="24" font-weight="bold" font-style="normal" fill="#1c1c1c" text-anchor="middle">Reward Router</text>
<rect x="844" y="400" width="240" height="318" rx="14" fill="#f1f1ef" stroke="#f1f1ef" stroke-width="0"/>
<text x="964.0" y="434" font-family="DejaVu Sans, Helvetica, Arial, sans-serif" font-size="24" font-weight="bold" font-style="normal" fill="#1c1c1c" text-anchor="middle">Target</text>
<text x="964.0" y="464" font-family="DejaVu Sans, Helvetica, Arial, sans-serif" font-size="24" font-weight="bold" font-style="normal" fill="#1c1c1c" text-anchor="middle">(reject path)</text>
<rect x="1116" y="400" width="268" height="318" rx="14" fill="#f1f1ef" stroke="#f1f1ef" stroke-width="0"/>
<text x="1250.0" y="434" font-family="DejaVu Sans, Helvetica, Arial, sans-serif" font-size="24" font-weight="bold" font-style="normal" fill="#1c1c1c" text-anchor="middle">Output</text>
<text x="18" y="712" font-family="DejaVu Sans, Helvetica, Arial, sans-serif" font-size="24" font-weight="bold" font-style="normal" fill="#1c1c1c" text-anchor="start">(b)</text>
<text x="119" y="496" font-family="DejaVu Sans, Helvetica, Arial, sans-serif" font-size="14" font-weight="normal" font-style="normal" fill="#4f4f4f" text-anchor="middle">Block</text>
<text x="70.5" y="518" font-family="DejaVu Sans, Helvetica, Arial, sans-serif" font-size="14" font-weight="normal" fill="#4f4f4f" text-anchor="start"><tspan  font-style="italic">b</tspan><tspan  font-style="italic"> = 0, 1, …, 8</tspan></text>
<rect x="46" y="568" width="146" height="76" rx="8" fill="#ffffff" stroke="#9a9a9a" stroke-width="1.6"/>
<text x="119" y="596" font-family="DejaVu Sans, Helvetica, Arial, sans-serif" font-size="17" font-weight="bold" font-style="normal" fill="#1c1c1c" text-anchor="middle">Text</text>
<text x="119" y="618" font-family="DejaVu Sans, Helvetica, Arial, sans-serif" font-size="17" font-weight="bold" font-style="normal" fill="#1c1c1c" text-anchor="middle">Prompt</text>
<text x="113.6" y="638" font-family="DejaVu Sans, Helvetica, Arial, sans-serif" font-size="17" font-weight="normal" fill="#1c1c1c" text-anchor="start"><tspan  font-style="italic">p</tspan></text>
<rect x="268" y="466" width="148" height="158" rx="10" fill="#cfe0f3" stroke="#3c78b4" stroke-width="2.0"/>
<text x="342.0" y="494" font-family="DejaVu Sans, Helvetica, Arial, sans-serif" font-size="20" font-weight="bold" font-style="normal" fill="#1d4e7d" text-anchor="middle">Drafter</text>
<text x="310.8" y="516" font-family="DejaVu Sans, Helvetica, Arial, sans-serif" font-size="14" font-weight="normal" fill="#1d4e7d" text-anchor="start"><tspan  font-style="italic">D</tspan><tspan  font-style="italic">  (1.3B)</tspan></text>
<line x1="310.0" y1="540" x2="335.0" y2="531" stroke="#7fa8cf" stroke-width="1.5"/>
<line x1="310.0" y1="540" x2="335.0" y2="552" stroke="#7fa8cf" stroke-width="1.5"/>
<line x1="310.0" y1="540" x2="335.0" y2="573" stroke="#7fa8cf" stroke-width="1.5"/>
<line x1="310.0" y1="564" x2="335.0" y2="531" stroke="#7fa8cf" stroke-width="1.5"/>
<line x1="310.0" y1="564" x2="335.0" y2="552" stroke="#7fa8cf" stroke-width="1.5"/>
<line x1="310.0" y1="564" x2="335.0" y2="573" stroke="#7fa8cf" stroke-width="1.5"/>
<line x1="335.0" y1="531" x2="366.0" y2="540" stroke="#7fa8cf" stroke-width="1.5"/>
<line x1="335.0" y1="531" x2="366.0" y2="564" stroke="#7fa8cf" stroke-width="1.5"/>
<line x1="335.0" y1="552" x2="366.0" y2="540" stroke="#7fa8cf" stroke-width="1.5"/>
<line x1="335.0" y1="552" x2="366.0" y2="564" stroke="#7fa8cf" stroke-width="1.5"/>
<line x1="335.0" y1="573" x2="366.0" y2="540" stroke="#7fa8cf" stroke-width="1.5"/>
<line x1="335.0" y1="573" x2="366.0" y2="564" stroke="#7fa8cf" stroke-width="1.5"/>
<circle cx="310.0" cy="540" r="5.2" fill="#ffffff" stroke="#3c78b4" stroke-width="1.7"/>
<circle cx="310.0" cy="564" r="5.2" fill="#ffffff" stroke="#3c78b4" stroke-width="1.7"/>
<circle cx="335.0" cy="531" r="5.2" fill="#ffffff" stroke="#3c78b4" stroke-width="1.7"/>
<circle cx="335.0" cy="552" r="5.2" fill="#ffffff" stroke="#3c78b4" stroke-width="1.7"/>
<circle cx="335.0" cy="573" r="5.2" fill="#ffffff" stroke="#3c78b4" stroke-width="1.7"/>
<circle cx="366.0" cy="540" r="5.2" fill="#ffffff" stroke="#3c78b4" stroke-width="1.7"/>
<circle cx="366.0" cy="564" r="5.2" fill="#ffffff" stroke="#3c78b4" stroke-width="1.7"/>
<text x="342.0" y="596" font-family="DejaVu Sans, Helvetica, Arial, sans-serif" font-size="13" font-weight="normal" font-style="normal" fill="#1d4e7d" text-anchor="middle">4 denoising</text>
<text x="342.0" y="614" font-family="DejaVu Sans, Helvetica, Arial, sans-serif" font-size="13" font-weight="normal" font-style="normal" fill="#1d4e7d" text-anchor="middle">steps</text>
<line x1="192" y1="638" x2="258" y2="638" stroke="#3c78b4" stroke-width="2.0" marker-end="url(#arrowblue)"/>
<text x="222" y="616" font-family="DejaVu Sans, Helvetica, Arial, sans-serif" font-size="13" font-weight="normal" font-style="normal" fill="#4f4f4f" text-anchor="middle">noise</text>
<text x="215.1" y="636" font-family="DejaVu Sans, Helvetica, Arial, sans-serif" font-size="13" font-weight="normal" fill="#4f4f4f" text-anchor="start"><tspan  font-style="italic">z</tspan><tspan dy="4" font-size="11" font-style="italic">b</tspan></text>
<path d="M 416 510 L 500 510 L 500 496 L 536 496" fill="none" stroke="#3c78b4" stroke-width="2.0" marker-end="url(#arrowblue)"/>
<text x="470" y="538" font-family="DejaVu Sans, Helvetica, Arial, sans-serif" font-size="13" font-weight="normal" font-style="normal" fill="#4f4f4f" text-anchor="middle">draft block</text>
<text x="461.8" y="558" font-family="DejaVu Sans, Helvetica, Arial, sans-serif" font-size="16" font-weight="normal" fill="#4f4f4f" text-anchor="start"><tspan  font-style="italic">x̂</tspan><tspan dy="4" font-size="11" font-style="italic">b</tspan></text>
<rect x="274" y="658" width="15" height="22" rx="3" fill="#7fb0dd" stroke="#3c78b4" stroke-width="1.4"/>
<rect x="291" y="658" width="15" height="22" rx="3" fill="#bcd6ee" stroke="#3c78b4" stroke-width="1.4"/>
<rect x="308" y="658" width="15" height="22" rx="3" fill="#bcd6ee" stroke="#3c78b4" stroke-width="1.4"/>
<rect x="325" y="658" width="15" height="22" rx="3" fill="#bcd6ee" stroke="#3c78b4" stroke-width="1.4"/>
<rect x="342" y="658" width="15" height="22" rx="3" fill="#bcd6ee" stroke="#3c78b4" stroke-width="1.4"/>
<rect x="359" y="658" width="15" height="22" rx="3" fill="#bcd6ee" stroke="#3c78b4" stroke-width="1.4"/>
<rect x="376" y="658" width="15" height="22" rx="3" fill="#bcd6ee" stroke="#3c78b4" stroke-width="1.4"/>
<rect x="393" y="658" width="15" height="22" rx="3" fill="#bcd6ee" stroke="#3c78b4" stroke-width="1.4"/>
<text x="342.0" y="698" font-family="DejaVu Sans, Helvetica, Arial, sans-serif" font-size="13" font-weight="normal" font-style="normal" fill="#4f4f4f" text-anchor="middle">KV Cache (Drafter)</text>
<ellipse cx="596" cy="488" rx="25" ry="8" fill="#f4c79b" stroke="#a85a20" stroke-width="1.7"/>
<rect x="571" y="488" width="50" height="28" fill="#f0b57f" stroke="none"/>
<line x1="571" y1="488" x2="571" y2="516" stroke="#a85a20" stroke-width="1.7"/>
<line x1="621" y1="488" x2="621" y2="516" stroke="#a85a20" stroke-width="1.7"/>
<ellipse cx="596" cy="516" rx="25" ry="8" fill="#e79a4f" stroke="#a85a20" stroke-width="1.7"/>
<text x="596" y="508" font-family="DejaVu Sans, Helvetica, Arial, sans-serif" font-size="13" font-weight="bold" font-style="normal" fill="#6b3c12" text-anchor="middle">VAE</text>
<text x="596" y="546" font-family="DejaVu Sans, Helvetica, Arial, sans-serif" font-size="13" font-weight="bold" font-style="normal" fill="#6b3c12" text-anchor="middle">Decode</text>
<rect x="646" y="476" width="22" height="38" rx="2" fill="#e4e4e4" stroke="#4a4a4a" stroke-width="1.6"/>
<rect x="649" y="482" width="16" height="26" fill="#9aa7b5"/>
<rect x="671" y="476" width="22" height="38" rx="2" fill="#e4e4e4" stroke="#4a4a4a" stroke-width="1.6"/>
<rect x="674" y="482" width="16" height="26" fill="#9aa7b5"/>
<rect x="696" y="476" width="22" height="38" rx="2" fill="#e4e4e4" stroke="#4a4a4a" stroke-width="1.6"/>
<rect x="699" y="482" width="16" height="26" fill="#9aa7b5"/>
<rect x="721" y="476" width="22" height="38" rx="2" fill="#e4e4e4" stroke="#4a4a4a" stroke-width="1.6"/>
<rect x="724" y="482" width="16" height="26" fill="#9aa7b5"/>
<line x1="626" y1="496" x2="642" y2="496" stroke="#1c1c1c" stroke-width="1.8" marker-end="url(#arrow)"/>
<path d="M 694.5 542 L 694.5 564" fill="none" stroke="#1c1c1c" stroke-width="1.8" marker-end="url(#arrow)"/>
<circle cx="698" cy="590" r="24" fill="#c0392b" stroke="#8f2a20" stroke-width="1.7"/>
<path d="M 686 614 L 676 640 L 698 628 L 720 640 L 710 614 Z" fill="#c0392b" stroke="#8f2a20" stroke-width="1.3"/>
<path d="M 698 575 l 5 10.5 11.5 1.9 -8.3 8 2 11.5 -10.2 -5.4 -10.2 5.4 2 -11.5 -8.3 -8 11.5 -1.9 z" fill="#ffffff"/>
<text x="698" y="658" font-family="DejaVu Sans, Helvetica, Arial, sans-serif" font-size="12" font-weight="bold" font-style="normal" fill="#8f2a20" text-anchor="middle">ImageReward</text>
<rect x="568" y="596" width="20" height="32" rx="2" fill="#e4e4e4" stroke="#4a4a4a" stroke-width="1.6" stroke-dasharray="4,3"/>
<rect x="571" y="601" width="14" height="22" fill="#9aa7b5"/>
<rect x="590" y="596" width="20" height="32" rx="2" fill="#e4e4e4" stroke="#4a4a4a" stroke-width="1.6" stroke-dasharray="4,3"/>
<rect x="593" y="601" width="14" height="22" fill="#9aa7b5"/>
<rect x="612" y="596" width="20" height="32" rx="2" fill="#e4e4e4" stroke="#4a4a4a" stroke-width="1.6" stroke-dasharray="4,3"/>
<rect x="615" y="601" width="14" height="22" fill="#9aa7b5"/>
<path d="M 620 630 L 640 614" fill="none" stroke="#4f4f4f" stroke-width="1.6" stroke-dasharray="6,4" marker-end="url(#arrow)"/>
<rect x="556" y="668" width="250" height="42" rx="8" fill="#e8f1e8" stroke="#3f8f56" stroke-width="1.5" stroke-dasharray="6,4"/>
<text x="681" y="687" font-family="DejaVu Sans, Helvetica, Arial, sans-serif" font-size="13" font-weight="bold" font-style="normal" fill="#2f6b40" text-anchor="middle">Decide from the 4-frame proxy</text>
<text x="681" y="703" font-family="DejaVu Sans, Helvetica, Arial, sans-serif" font-size="13" font-weight="normal" font-style="normal" fill="#2f6b40" text-anchor="middle">unless τ−δ &lt; q̂b &lt; τ+δ</text>
<polygon points="952,494 1004,540 952,586 900,540" fill="#ffffff" stroke="#8a8a8a" stroke-width="1.8"/>
<text x="929.2" y="536" font-family="DejaVu Sans, Helvetica, Arial, sans-serif" font-size="14" font-weight="normal" fill="#1c1c1c" text-anchor="start"><tspan  font-style="italic">q̂</tspan><tspan dy="4" font-size="12" font-style="italic">b</tspan><tspan dy="-4" font-style="italic"> ≥ τ</tspan></text>
<text x="924.6" y="556" font-family="DejaVu Sans, Helvetica, Arial, sans-serif" font-size="14" font-weight="normal" fill="#1c1c1c" text-anchor="start"><tspan  font-style="italic">| q</tspan><tspan dy="4" font-size="12" font-style="italic">b</tspan><tspan dy="-4" font-style="italic"> ≥ τ</tspan></text>
<polygon points="952,494 1004,540 952,586 900,540" fill="#ffffff" stroke="#8a8a8a" stroke-width="1.8"/>
<text x="929.2" y="536" font-family="DejaVu Sans, Helvetica, Arial, sans-serif" font-size="14" font-weight="normal" fill="#1c1c1c" text-anchor="start"><tspan  font-style="italic">q̂</tspan><tspan dy="4" font-size="12" font-style="italic">b</tspan><tspan dy="-4" font-style="italic"> ≥ τ</tspan></text>
<text x="924.6" y="556" font-family="DejaVu Sans, Helvetica, Arial, sans-serif" font-size="14" font-weight="normal" fill="#1c1c1c" text-anchor="start"><tspan  font-style="italic">| q</tspan><tspan dy="4" font-size="12" font-style="italic">b</tspan><tspan dy="-4" font-style="italic"> ≥ τ</tspan></text>
<path d="M 780 666 L 838 666 L 838 524 L 904 524" fill="none" stroke="#1c1c1c" stroke-width="1.8" marker-end="url(#arrow)"/>
<path d="M 1006 540 L 1108 540" fill="none" stroke="#3f8f56" stroke-width="3.2" marker-end="url(#arrowgrn)"/>
<text x="1022" y="518" font-family="DejaVu Sans, Helvetica, Arial, sans-serif" font-size="14" font-weight="bold" font-style="normal" fill="#3f8f56" text-anchor="middle">Accept</text>
<path d="M 1052 524 l 9 12 18 -24" fill="none" stroke="#3f8f56" stroke-width="3.6"/>
<path d="M 952 586 L 952 632" fill="none" stroke="#bf3b2b" stroke-width="3.2" marker-end="url(#arrowred)"/>
<text x="958" y="610" font-family="DejaVu Sans, Helvetica, Arial, sans-serif" font-size="14" font-weight="bold" font-style="normal" fill="#bf3b2b" text-anchor="start">Reject</text>
<path d="M 1030 596 l 20 20 M 1050 596 l -20 20" stroke="#bf3b2b" stroke-width="3.6"/>
<rect x="846" y="616" width="150" height="62" rx="10" fill="#e8964f" stroke="#a85a20" stroke-width="2.0"/>
<text x="864" y="642" font-family="DejaVu Sans, Helvetica, Arial, sans-serif" font-size="20" font-weight="bold" font-style="normal" fill="#ffffff" text-anchor="middle">Target</text>
<text x="838.1" y="662" font-family="DejaVu Sans, Helvetica, Arial, sans-serif" font-size="13" font-weight="normal" fill="#ffffff" text-anchor="start"><tspan  font-style="italic">T</tspan><tspan  font-style="italic">  (14B)</tspan></text>
<path d="M 938 638 L 956 629 L 974 638 L 956 647 Z" fill="#ffffff" stroke="#a85a20" stroke-width="1.2"/>
<path d="M 938 649 L 956 640 L 974 649 L 956 658 Z" fill="#ffffff" stroke="#a85a20" stroke-width="1.2"/>
<path d="M 938 660 L 956 651 L 974 660 L 956 669 Z" fill="#ffffff" stroke="#a85a20" stroke-width="1.2"/>
<text x="1030" y="694" font-family="DejaVu Sans, Helvetica, Arial, sans-serif" font-size="12" font-weight="bold" font-style="normal" fill="#1d4e7d" text-anchor="middle">k steps drafter-run</text>
<path d="M 1024 647 L 998 647" fill="none" stroke="#3c78b4" stroke-width="1.6" marker-end="url(#arrowblue)"/>
<path d="M 1080 620 L 1090 620 L 1090 700 L 1142 700" fill="none" stroke="#a85a20" stroke-width="1.8" marker-end="url(#arroworg)"/>
<text x="1250" y="466" font-family="DejaVu Sans, Helvetica, Arial, sans-serif" font-size="17" font-weight="bold" font-style="normal" fill="#1c1c1c" text-anchor="middle">KV Cache (Target)</text>
<rect x="1136" y="484" width="30" height="26" rx="4" fill="#4a4a4a"/>
<path d="M 1142 484 v -7 a 9 9 0 0 1 18 0 v 7" fill="none" stroke="#4a4a4a" stroke-width="3.6"/>
<circle cx="1151" cy="495" r="3.6" fill="#ffffff"/>
<rect x="1174" y="482" width="23" height="30" rx="3" fill="#7fb0dd" stroke="#3c78b4" stroke-width="1.4"/>
<rect x="1200" y="482" width="23" height="30" rx="3" fill="#bcd6ee" stroke="#3c78b4" stroke-width="1.4"/>
<rect x="1226" y="482" width="23" height="30" rx="3" fill="#7fb0dd" stroke="#3c78b4" stroke-width="1.4"/>
<rect x="1252" y="482" width="23" height="30" rx="3" fill="#bcd6ee" stroke="#3c78b4" stroke-width="1.4"/>
<rect x="1278" y="482" width="23" height="30" rx="3" fill="#efb27a" stroke="#a85a20" stroke-width="1.4"/>
<rect x="1304" y="482" width="23" height="30" rx="3" fill="#efb27a" stroke="#a85a20" stroke-width="1.4"/>
<rect x="1330" y="482" width="23" height="30" rx="3" fill="#efb27a" stroke="#a85a20" stroke-width="1.4"/>
<rect x="1150" y="570" width="40" height="52" rx="3" fill="#5b6b5e" stroke="#2f3a31" stroke-width="1.9"/>
<rect x="1155" y="577" width="30" height="38" fill="#8fa393"/>
<rect x="1194" y="570" width="40" height="52" rx="3" fill="#5b6b5e" stroke="#2f3a31" stroke-width="1.9"/>
<rect x="1199" y="577" width="30" height="38" fill="#8fa393"/>
<rect x="1238" y="570" width="40" height="52" rx="3" fill="#5b6b5e" stroke="#2f3a31" stroke-width="1.9"/>
<rect x="1243" y="577" width="30" height="38" fill="#8fa393"/>
<rect x="1282" y="570" width="40" height="52" rx="3" fill="#5b6b5e" stroke="#2f3a31" stroke-width="1.9"/>
<rect x="1287" y="577" width="30" height="38" fill="#8fa393"/>
<rect x="1150" y="628" width="40" height="52" rx="3" fill="#5b6b5e" stroke="#2f3a31" stroke-width="1.9"/>
<rect x="1155" y="635" width="30" height="38" fill="#8fa393"/>
<rect x="1194" y="628" width="40" height="52" rx="3" fill="#5b6b5e" stroke="#2f3a31" stroke-width="1.9"/>
<rect x="1199" y="635" width="30" height="38" fill="#8fa393"/>
<rect x="1238" y="628" width="40" height="52" rx="3" fill="#5b6b5e" stroke="#2f3a31" stroke-width="1.9"/>
<rect x="1243" y="635" width="30" height="38" fill="#8fa393"/>
<rect x="1282" y="628" width="40" height="52" rx="3" fill="#5b6b5e" stroke="#2f3a31" stroke-width="1.9"/>
<rect x="1287" y="635" width="30" height="38" fill="#8fa393"/>
<text x="1250" y="696" font-family="DejaVu Sans, Helvetica, Arial, sans-serif" font-size="14" font-weight="bold" font-style="normal" fill="#1c1c1c" text-anchor="middle">Output Video (27 frames)</text>
<text x="56" y="756" font-family="DejaVu Sans, Helvetica, Arial, sans-serif" font-size="16" font-weight="bold" font-style="normal" fill="#1c1c1c" text-anchor="start">LEGEND</text>
<rect x="148" y="734" width="30" height="30" rx="6" fill="#5f9fd6" stroke="#3c78b4" stroke-width="1.8"/>
<text x="190" y="754" font-family="DejaVu Sans, Helvetica, Arial, sans-serif" font-size="14" font-weight="normal" font-style="normal" fill="#1c1c1c" text-anchor="start">Draft accepted</text>
<rect x="346" y="734" width="30" height="30" rx="6" fill="#e8853c" stroke="#a85a20" stroke-width="1.8"/>
<text x="388" y="754" font-family="DejaVu Sans, Helvetica, Arial, sans-serif" font-size="14" font-weight="normal" font-style="normal" fill="#1c1c1c" text-anchor="start">Target regenerated</text>
<rect x="600" y="734" width="30" height="30" rx="6" fill="#e8f1e8" stroke="#3f8f56" stroke-width="1.8" stroke-dasharray="6,4"/>
<text x="642" y="742" font-family="DejaVu Sans, Helvetica, Arial, sans-serif" font-size="14" font-weight="normal" font-style="normal" fill="#1c1c1c" text-anchor="start">Cascade: 4-frame proxy,</text>
<text x="642" y="764" font-family="DejaVu Sans, Helvetica, Arial, sans-serif" font-size="14" font-weight="normal" font-style="normal" fill="#1c1c1c" text-anchor="start">full score in the grey band</text>
<rect x="918" y="734" width="30" height="30" rx="6" fill="#cfe0f3" stroke="#3c78b4" stroke-width="1.8"/>
<text x="960" y="742" font-family="DejaVu Sans, Helvetica, Arial, sans-serif" font-size="14" font-weight="normal" font-style="normal" fill="#1c1c1c" text-anchor="start">Stitched: first k target steps</text>
<text x="960" y="764" font-family="DejaVu Sans, Helvetica, Arial, sans-serif" font-size="14" font-weight="normal" font-style="normal" fill="#1c1c1c" text-anchor="start">run in the drafter</text>
</svg>
