<svg xmlns="http://www.w3.org/2000/svg" viewBox="0 0 1408 724" width="1408" height="724">
<defs>
<marker id="arrow" viewBox="0 0 10 10" refX="8.5" refY="5" markerWidth="5.2" markerHeight="5.2" orient="auto-start-reverse"><path d="M 0 1 L 9 5 L 0 9 z" fill="#1c1c1c"/></marker>
<marker id="arrowblue" viewBox="0 0 10 10" refX="8.5" refY="5" markerWidth="5.2" markerHeight="5.2" orient="auto-start-reverse"><path d="M 0 1 L 9 5 L 0 9 z" fill="#3c78b4"/></marker>
<marker id="arroworg" viewBox="0 0 10 10" refX="8.5" refY="5" markerWidth="5.2" markerHeight="5.2" orient="auto-start-reverse"><path d="M 0 1 L 9 5 L 0 9 z" fill="#a85a20"/></marker>
<marker id="arrowgrn" viewBox="0 0 10 10" refX="8.5" refY="5" markerWidth="5.2" markerHeight="5.2" orient="auto-start-reverse"><path d="M 0 1 L 9 5 L 0 9 z" fill="#3f8f56"/></marker>
<marker id="arrowred" viewBox="0 0 10 10" refX="8.5" refY="5" markerWidth="5.2" markerHeight="5.2" orient="auto-start-reverse"><path d="M 0 1 L 9 5 L 0 9 z" fill="#bf3b2b"/></marker>
</defs>
<rect x="0" y="0" width="1408" height="724" fill="white"/>
<g transform="translate(0,-40)">
<rect x="24" y="74" width="190" height="626" rx="16" fill="#f1f1ef" stroke="#f1f1ef" stroke-width="0"/>
<text x="119.0" y="110" font-family="DejaVu Sans, Helvetica, Arial, sans-serif" font-size="32" font-weight="bold" font-style="normal" fill="#1c1c1c" text-anchor="middle">Input</text>
<rect x="228" y="74" width="292" height="626" rx="16" fill="#f1f1ef" stroke="#f1f1ef" stroke-width="0"/>
<text x="374.0" y="110" font-family="DejaVu Sans, Helvetica, Arial, sans-serif" font-size="32" font-weight="bold" font-style="normal" fill="#1c1c1c" text-anchor="middle">Drafter</text>
<rect x="534" y="74" width="284" height="626" rx="16" fill="#f1f1ef" stroke="#f1f1ef" stroke-width="0"/>
<text x="676.0" y="110" font-family="DejaVu Sans, Helvetica, Arial, sans-serif" font-size="32" font-weight="bold" font-style="normal" fill="#1c1c1c" text-anchor="middle">VAE +</text>
<text x="676.0" y="152" font-family="DejaVu Sans, Helvetica, Arial, sans-serif" font-size="32" font-weight="bold" font-style="normal" fill="#1c1c1c" text-anchor="middle">Reward Router</text>
<rect x="832" y="74" width="244" height="626" rx="16" fill="#f1f1ef" stroke="#f1f1ef" stroke-width="0"/>
<text x="954.0" y="110" font-family="DejaVu Sans, Helvetica, Arial, sans-serif" font-size="32" font-weight="bold" font-style="normal" fill="#1c1c1c" text-anchor="middle">Target</text>
<text x="954.0" y="152" font-family="DejaVu Sans, Helvetica, Arial, sans-serif" font-size="32" font-weight="bold" font-style="normal" fill="#1c1c1c" text-anchor="middle">(reject path)</text>
<rect x="1090" y="74" width="294" height="626" rx="16" fill="#f1f1ef" stroke="#f1f1ef" stroke-width="0"/>
<text x="1237.0" y="110" font-family="DejaVu Sans, Helvetica, Arial, sans-serif" font-size="32" font-weight="bold" font-style="normal" fill="#1c1c1c" text-anchor="middle">Output</text>
<rect x="68" y="224" width="104" height="88" rx="8" fill="#ffffff" stroke="#9a9a9a" stroke-width="1.6"/>
<text x="120" y="260" font-family="DejaVu Sans, Helvetica, Arial, sans-serif" font-size="22" font-weight="bold" font-style="normal" fill="#1c1c1c" text-anchor="middle">Text</text>
<text x="120" y="284" font-family="DejaVu Sans, Helvetica, Arial, sans-serif" font-size="22" font-weight="bold" font-style="normal" fill="#1c1c1c" text-anchor="middle">Prompt</text>
<text x="113.0" y="306" font-family="DejaVu Sans, Helvetica, Arial, sans-serif" font-size="22" font-weight="normal" fill="#1c1c1c" text-anchor="start"><tspan  font-style="italic">p</tspan></text>
<text x="119" y="460" font-family="DejaVu Sans, Helvetica, Arial, sans-serif" font-size="18" font-weight="normal" font-style="normal" fill="#4f4f4f" text-anchor="middle">generated blocks</text>
<rect x="42.0" y="474" width="24" height="32" rx="3" fill="#efb27a" stroke="#a85a20" stroke-width="1.5"/>
<rect x="68.0" y="474" width="24" height="32" rx="3" fill="#7fb0dd" stroke="#3c78b4" stroke-width="1.5"/>
<rect x="94.0" y="474" width="24" height="32" rx="3" fill="#7fb0dd" stroke="#3c78b4" stroke-width="1.5"/>
<rect x="120.0" y="474" width="24" height="32" rx="3" fill="#7fb0dd" stroke="#3c78b4" stroke-width="1.5"/>
<rect x="146.0" y="474" width="24" height="32" rx="3" fill="#efb27a" stroke="#a85a20" stroke-width="1.5"/>
<rect x="172.0" y="474" width="24" height="32" rx="3" fill="#7fb0dd" stroke="#3c78b4" stroke-width="1.5"/>
<rect x="46.0" y="487" width="16" height="11" rx="2" fill="#4a4a4a"/>
<path d="M 49.0 487 a 5.00 5.00 0 0 1 10.0 0" fill="none" stroke="#4a4a4a" stroke-width="2.4"/>
<circle cx="54.0" cy="491.9" r="2" fill="#ffffff"/>
<text x="77.4" y="540" font-family="DejaVu Sans, Helvetica, Arial, sans-serif" font-size="19" font-weight="normal" fill="#4f4f4f" text-anchor="start"><tspan  font-style="italic">0 … b−1</tspan></text>
<line x1="298.0" y1="214" x2="333.0" y2="202" stroke="#7fa8cf" stroke-width="1.8"/>
<line x1="298.0" y1="214" x2="333.0" y2="230" stroke="#7fa8cf" stroke-width="1.8"/>
<line x1="298.0" y1="214" x2="333.0" y2="258" stroke="#7fa8cf" stroke-width="1.8"/>
<line x1="298.0" y1="246" x2="333.0" y2="202" stroke="#7fa8cf" stroke-width="1.8"/>
<line x1="298.0" y1="246" x2="333.0" y2="230" stroke="#7fa8cf" stroke-width="1.8"/>
<line x1="298.0" y1="246" x2="333.0" y2="258" stroke="#7fa8cf" stroke-width="1.8"/>
<line x1="333.0" y1="202" x2="374.0" y2="214" stroke="#7fa8cf" stroke-width="1.8"/>
<line x1="333.0" y1="202" x2="374.0" y2="246" stroke="#7fa8cf" stroke-width="1.8"/>
<line x1="333.0" y1="230" x2="374.0" y2="214" stroke="#7fa8cf" stroke-width="1.8"/>
<line x1="333.0" y1="230" x2="374.0" y2="246" stroke="#7fa8cf" stroke-width="1.8"/>
<line x1="333.0" y1="258" x2="374.0" y2="214" stroke="#7fa8cf" stroke-width="1.8"/>
<line x1="333.0" y1="258" x2="374.0" y2="246" stroke="#7fa8cf" stroke-width="1.8"/>
<circle cx="298.0" cy="214" r="7" fill="#ffffff" stroke="#3c78b4" stroke-width="2"/>
<circle cx="298.0" cy="246" r="7" fill="#ffffff" stroke="#3c78b4" stroke-width="2"/>
<circle cx="333.0" cy="202" r="7" fill="#ffffff" stroke="#3c78b4" stroke-width="2"/>
<circle cx="333.0" cy="230" r="7" fill="#ffffff" stroke="#3c78b4" stroke-width="2"/>
<circle cx="333.0" cy="258" r="7" fill="#ffffff" stroke="#3c78b4" stroke-width="2"/>
<circle cx="374.0" cy="214" r="7" fill="#ffffff" stroke="#3c78b4" stroke-width="2"/>
<circle cx="374.0" cy="246" r="7" fill="#ffffff" stroke="#3c78b4" stroke-width="2"/>
<text x="280.2" y="340" font-family="DejaVu Sans, Helvetica, Arial, sans-serif" font-size="25" font-weight="normal" fill="#1d4e7d" text-anchor="start"><tspan  font-style="italic">D</tspan><tspan  font-style="italic">  (1.3B)</tspan></text>
<rect x="294.0" y="390" width="84" height="30" rx="6" fill="#e9f3fc" stroke="#3c78b4" stroke-width="1.8"/>
<line x1="336.0" y1="420" x2="336.0" y2="446" stroke="#3c78b4" stroke-width="2.2" marker-end="url(#arrowblue)"/>
<rect x="294.0" y="446" width="84" height="30" rx="6" fill="#cee2f4" stroke="#3c78b4" stroke-width="1.8"/>
<line x1="336.0" y1="476" x2="336.0" y2="502" stroke="#3c78b4" stroke-width="2.2" marker-end="url(#arrowblue)"/>
<rect x="294.0" y="502" width="84" height="30" rx="6" fill="#b4d2ec" stroke="#3c78b4" stroke-width="1.8"/>
<line x1="336.0" y1="532" x2="336.0" y2="558" stroke="#3c78b4" stroke-width="2.2" marker-end="url(#arrowblue)"/>
<rect x="294.0" y="558" width="84" height="30" rx="6" fill="#99c1e4" stroke="#3c78b4" stroke-width="1.8"/>
<line x1="336.0" y1="588" x2="336.0" y2="614" stroke="#3c78b4" stroke-width="2.2" marker-end="url(#arrowblue)"/>
<rect x="294.0" y="614" width="84" height="30" rx="6" fill="#7fb0dd" stroke="#3c78b4" stroke-width="1.8"/>
<text x="282.0" y="412" font-family="DejaVu Sans, Helvetica, Arial, sans-serif" font-size="20" font-weight="normal" font-style="normal" fill="#4f4f4f" text-anchor="end">Drafter</text>
<path d="M 418 629 L 512 629 L 512 232 L 546 232" fill="none" stroke="#3c78b4" stroke-width="2.6" marker-end="url(#arrowblue)"/>
<text x="462" y="338" font-family="DejaVu Sans, Helvetica, Arial, sans-serif" font-size="19" font-weight="normal" font-style="normal" fill="#4f4f4f" text-anchor="middle">draft block</text>
<text x="451.0" y="362" font-family="DejaVu Sans, Helvetica, Arial, sans-serif" font-size="22" font-weight="normal" fill="#4f4f4f" text-anchor="start"><tspan  font-style="italic">x̂</tspan><tspan dy="5" font-size="14" font-style="italic">b</tspan></text>
<ellipse cx="588" cy="205" rx="40" ry="12" fill="#f4c79b" stroke="#a85a20" stroke-width="1.8"/>
<rect x="548" y="205" width="80" height="46" fill="#f0b57f" stroke="none"/>
<line x1="548" y1="205" x2="548" y2="251" stroke="#a85a20" stroke-width="1.8"/>
<line x1="628" y1="205" x2="628" y2="251" stroke="#a85a20" stroke-width="1.8"/>
<ellipse cx="588" cy="251" rx="40" ry="12" fill="#e79a4f" stroke="#a85a20" stroke-width="1.8"/>
<text x="588" y="236" font-family="DejaVu Sans, Helvetica, Arial, sans-serif" font-size="22" font-weight="bold" font-style="normal" fill="#6b3c12" text-anchor="middle">VAE</text>
<text x="588" y="282" font-family="DejaVu Sans, Helvetica, Arial, sans-serif" font-size="22" font-weight="bold" font-style="normal" fill="#6b3c12" text-anchor="middle">Decode</text>
<text x="690" y="186" font-family="DejaVu Sans, Helvetica, Arial, sans-serif" font-size="19" font-weight="normal" font-style="normal" fill="#4f4f4f" text-anchor="middle">F = 12 frames</text>
<rect x="660" y="200" width="30" height="48" rx="2" fill="#e4e4e4" stroke="#4a4a4a" stroke-width="1.8"/>
<rect x="664" y="208" width="22" height="32" fill="#9aa7b5"/>
<rect x="694" y="200" width="30" height="48" rx="2" fill="#e4e4e4" stroke="#4a4a4a" stroke-width="1.8"/>
<rect x="698" y="208" width="22" height="32" fill="#9aa7b5"/>
<rect x="728" y="200" width="30" height="48" rx="2" fill="#e4e4e4" stroke="#4a4a4a" stroke-width="1.8"/>
<rect x="732" y="208" width="22" height="32" fill="#9aa7b5"/>
<text x="668.6" y="276" font-family="DejaVu Sans, Helvetica, Arial, sans-serif" font-size="22" font-weight="normal" fill="#4f4f4f" text-anchor="start"><tspan  font-style="italic">f</tspan><tspan dy="5" font-size="14" font-style="italic">1</tspan><tspan  font-style="italic">, f</tspan><tspan dy="5" font-size="14" font-style="italic">2</tspan><tspan  font-style="italic">, …, f</tspan><tspan dy="5" font-size="14" font-style="italic">12</tspan></text>
<line x1="630" y1="232" x2="654" y2="232" stroke="#1c1c1c" stroke-width="2.2" marker-end="url(#arrow)"/>
<path d="M 710 254 L 710 350" fill="none" stroke="#1c1c1c" stroke-width="2.2" marker-end="url(#arrow)"/>
<circle cx="710" cy="388" r="30" fill="#c0392b" stroke="#8f2a20" stroke-width="1.8"/>
<path d="M 698 416 L 684 454 L 710 439 L 736 454 L 722 416 Z" fill="#c0392b" stroke="#8f2a20" stroke-width="1.4"/>
<path d="M 710 370 l 6.5 13 14.5 2.4 -10.5 10 2.5 14.4 -13 -6.8 -13 6.8 2.5 -14.4 -10.5 -10 14.5 -2.4 z" fill="#ffffff"/>
<text x="668" y="382" font-family="DejaVu Sans, Helvetica, Arial, sans-serif" font-size="22" font-weight="bold" font-style="normal" fill="#8f2a20" text-anchor="end">ImageReward</text>
<text x="660.4" y="408" font-family="DejaVu Sans, Helvetica, Arial, sans-serif" font-size="22" font-weight="normal" fill="#8f2a20" text-anchor="start"><tspan  font-style="italic">R</tspan></text>
<text x="584.8" y="512" font-family="DejaVu Sans, Helvetica, Arial, sans-serif" font-size="26" font-weight="normal" fill="#1c1c1c" text-anchor="start"><tspan  font-style="italic">q</tspan><tspan dy="5" font-size="15" font-style="italic">b</tspan><tspan dy="-5" font-style="italic"> = min</tspan><tspan dy="5" font-size="15" font-style="italic">i</tspan><tspan dy="-5" font-style="italic"> R(f</tspan><tspan dy="5" font-size="15" font-style="italic">i</tspan><tspan dy="-5" font-style="italic">, p)</tspan></text>
<path d="M 742 388 L 776 388 L 776 330 L 800 330" fill="none" stroke="#1c1c1c" stroke-width="2.6" marker-end="url(#arrow)"/>
<polygon points="866,282 928,340 866,398 804,340" fill="#ffffff" stroke="#8a8a8a" stroke-width="2"/>
<text x="831.4" y="348" font-family="DejaVu Sans, Helvetica, Arial, sans-serif" font-size="22" font-weight="normal" fill="#1c1c1c" text-anchor="start"><tspan  font-style="italic">q</tspan><tspan dy="5" font-size="15" font-style="italic">b</tspan><tspan dy="-5" font-style="italic"> ≥ τ</tspan></text>
<path d="M 928 340 L 1116 340" fill="none" stroke="#3f8f56" stroke-width="4" marker-end="url(#arrowgrn)"/>
<text x="985" y="312" font-family="DejaVu Sans, Helvetica, Arial, sans-serif" font-size="22" font-weight="bold" font-style="normal" fill="#3f8f56" text-anchor="middle">Accept</text>
<path d="M 1012 318 l 11 15 22 -30" fill="none" stroke="#3f8f56" stroke-width="4.5"/>
<text x="904.2" y="210" font-family="DejaVu Sans, Helvetica, Arial, sans-serif" font-size="25" font-weight="normal" fill="#a85a20" text-anchor="start"><tspan  font-style="italic">T</tspan><tspan  font-style="italic">  (14B)</tspan></text>
<path d="M 866 398 L 866 440" fill="none" stroke="#a85a20" stroke-width="4" marker-end="url(#arrow)"/>
<path d="M 866 440 L 975 440" fill="none" stroke="#a85a20" stroke-width="4"/>
<path d="M 880 440 L 880 468" fill="none" stroke="#a85a20" stroke-width="4" marker-end="url(#arroworg)"/>
<path d="M 975 440 L 975 468" fill="none" stroke="#a85a20" stroke-width="4" marker-end="url(#arroworg)"/>
<text x="884" y="424" font-family="DejaVu Sans, Helvetica, Arial, sans-serif" font-size="22" font-weight="bold" font-style="normal" fill="#bf3b2b" text-anchor="start">Reject</text>
<path d="M 1042 398 l 26 26 M 1068 398 l -26 26" stroke="#bf3b2b" stroke-width="4.5"/>
<rect x="849.0" y="470" width="62" height="22" rx="5" fill="#fceee0" stroke="#a85a20" stroke-width="1.7"/>
<line x1="880" y1="492" x2="880" y2="508" stroke="#a85a20" stroke-width="2.0" marker-end="url(#arroworg)"/>
<rect x="849.0" y="508" width="62" height="22" rx="5" fill="#f8dfc6" stroke="#a85a20" stroke-width="1.7"/>
<line x1="880" y1="530" x2="880" y2="546" stroke="#a85a20" stroke-width="2.0" marker-end="url(#arroworg)"/>
<rect x="849.0" y="546" width="62" height="22" rx="5" fill="#f5d0ad" stroke="#a85a20" stroke-width="1.7"/>
<line x1="880" y1="568" x2="880" y2="584" stroke="#a85a20" stroke-width="2.0" marker-end="url(#arroworg)"/>
<rect x="849.0" y="584" width="62" height="22" rx="5" fill="#f2c194" stroke="#a85a20" stroke-width="1.7"/>
<line x1="880" y1="606" x2="880" y2="622" stroke="#a85a20" stroke-width="2.0" marker-end="url(#arroworg)"/>
<rect x="849.0" y="622" width="62" height="22" rx="5" fill="#efb27a" stroke="#a85a20" stroke-width="1.7"/>
<text x="880" y="666" font-family="DejaVu Sans, Helvetica, Arial, sans-serif" font-size="19" font-weight="normal" font-style="normal" fill="#4f4f4f" text-anchor="middle">SDVG</text>
<rect x="944.0" y="470" width="62" height="22" rx="5" fill="#e9f3fc" stroke="#3c78b4" stroke-width="1.7"/>
<line x1="975" y1="492" x2="975" y2="508" stroke="#3c78b4" stroke-width="2.0" marker-end="url(#arrowblue)"/>
<rect x="944.0" y="508" width="62" height="22" rx="5" fill="#cee2f4" stroke="#3c78b4" stroke-width="1.7"/>
<line x1="975" y1="530" x2="975" y2="546" stroke="#3c78b4" stroke-width="2.0" marker-end="url(#arrowblue)"/>
<rect x="944.0" y="546" width="62" height="22" rx="5" fill="#b4d2ec" stroke="#3c78b4" stroke-width="1.7"/>
<line x1="975" y1="568" x2="975" y2="584" stroke="#a85a20" stroke-width="2.0" marker-end="url(#arroworg)"/>
<rect x="944.0" y="584" width="62" height="22" rx="5" fill="#f2c194" stroke="#a85a20" stroke-width="1.7"/>
<line x1="975" y1="606" x2="975" y2="622" stroke="#a85a20" stroke-width="2.0" marker-end="url(#arroworg)"/>
<rect x="944.0" y="622" width="62" height="22" rx="5" fill="#efb27a" stroke="#a85a20" stroke-width="1.7"/>
<text x="975" y="666" font-family="DejaVu Sans, Helvetica, Arial, sans-serif" font-size="19" font-weight="normal" font-style="normal" fill="#4f4f4f" text-anchor="middle">SDVG-hybrid</text>
<path d="M 1008 548 L 1112 548" fill="none" stroke="#a85a20" stroke-width="2.6" marker-end="url(#arroworg)"/>
<text x="1068" y="512" font-family="DejaVu Sans, Helvetica, Arial, sans-serif" font-size="19" font-weight="normal" font-style="normal" fill="#4f4f4f" text-anchor="middle">Regenerated</text>
<text x="1024.9" y="534" font-family="DejaVu Sans, Helvetica, Arial, sans-serif" font-size="19" font-weight="normal" fill="#4f4f4f" text-anchor="start"><tspan >block </tspan><tspan  font-style="italic">x*</tspan><tspan dy="5" font-size="14" font-style="italic">b</tspan></text>
<rect x="548" y="556" width="10" height="22" rx="2" fill="#b7d9c0" stroke="#3f8f56" stroke-width="1.4"/>
<rect x="560" y="556" width="10" height="22" rx="2" fill="#e4e4e4" stroke="#7a7a7a" stroke-width="1.4"/>
<rect x="572" y="556" width="10" height="22" rx="2" fill="#e4e4e4" stroke="#7a7a7a" stroke-width="1.4"/>
<rect x="584" y="556" width="10" height="22" rx="2" fill="#e4e4e4" stroke="#7a7a7a" stroke-width="1.4"/>
<rect x="596" y="556" width="10" height="22" rx="2" fill="#b7d9c0" stroke="#3f8f56" stroke-width="1.4"/>
<rect x="608" y="556" width="10" height="22" rx="2" fill="#e4e4e4" stroke="#7a7a7a" stroke-width="1.4"/>
<rect x="620" y="556" width="10" height="22" rx="2" fill="#e4e4e4" stroke="#7a7a7a" stroke-width="1.4"/>
<rect x="632" y="556" width="10" height="22" rx="2" fill="#b7d9c0" stroke="#3f8f56" stroke-width="1.4"/>
<rect x="644" y="556" width="10" height="22" rx="2" fill="#e4e4e4" stroke="#7a7a7a" stroke-width="1.4"/>
<rect x="656" y="556" width="10" height="22" rx="2" fill="#e4e4e4" stroke="#7a7a7a" stroke-width="1.4"/>
<rect x="668" y="556" width="10" height="22" rx="2" fill="#e4e4e4" stroke="#7a7a7a" stroke-width="1.4"/>
<rect x="680" y="556" width="10" height="22" rx="2" fill="#b7d9c0" stroke="#3f8f56" stroke-width="1.4"/>
<text x="548" y="548" font-family="DejaVu Sans, Helvetica, Arial, sans-serif" font-size="16" font-weight="normal" font-style="normal" fill="#4f4f4f" text-anchor="start">score 4 of 12</text>
<line x1="694" y1="567" x2="714" y2="567" stroke="#1c1c1c" stroke-width="2.2" marker-end="url(#arrow)"/>
<circle cx="728" cy="567" r="13" fill="#c0392b" stroke="#8f2a20" stroke-width="1.6"/>
<g transform="translate(728,567) scale(0.5) translate(-710,-388)"><path d="M 710 370 l 6.5 13 14.5 2.4 -10.5 10 2.5 14.4 -13 -6.8 -13 6.8 2.5 -14.4 -10.5 -10 14.5 -2.4 z" fill="#ffffff"/></g>
<text x="751.5" y="572" font-family="DejaVu Sans, Helvetica, Arial, sans-serif" font-size="19" font-weight="normal" fill="#1c1c1c" text-anchor="start"><tspan  font-style="italic">q̂</tspan><tspan dy="5" font-size="14" font-style="italic">b</tspan></text>
<rect x="548" y="640" width="10" height="22" rx="2" fill="#b7d9c0" stroke="#3f8f56" stroke-width="1.4"/>
<rect x="560" y="640" width="10" height="22" rx="2" fill="#b7d9c0" stroke="#3f8f56" stroke-width="1.4"/>
<rect x="572" y="640" width="10" height="22" rx="2" fill="#b7d9c0" stroke="#3f8f56" stroke-width="1.4"/>
<rect x="584" y="640" width="10" height="22" rx="2" fill="#b7d9c0" stroke="#3f8f56" stroke-width="1.4"/>
<rect x="596" y="640" width="10" height="22" rx="2" fill="#b7d9c0" stroke="#3f8f56" stroke-width="1.4"/>
<rect x="608" y="640" width="10" height="22" rx="2" fill="#b7d9c0" stroke="#3f8f56" stroke-width="1.4"/>
<rect x="620" y="640" width="10" height="22" rx="2" fill="#b7d9c0" stroke="#3f8f56" stroke-width="1.4"/>
<rect x="632" y="640" width="10" height="22" rx="2" fill="#b7d9c0" stroke="#3f8f56" stroke-width="1.4"/>
<rect x="644" y="640" width="10" height="22" rx="2" fill="#b7d9c0" stroke="#3f8f56" stroke-width="1.4"/>
<rect x="656" y="640" width="10" height="22" rx="2" fill="#b7d9c0" stroke="#3f8f56" stroke-width="1.4"/>
<rect x="668" y="640" width="10" height="22" rx="2" fill="#b7d9c0" stroke="#3f8f56" stroke-width="1.4"/>
<rect x="680" y="640" width="10" height="22" rx="2" fill="#b7d9c0" stroke="#3f8f56" stroke-width="1.4"/>
<text x="548" y="632" font-family="DejaVu Sans, Helvetica, Arial, sans-serif" font-size="16" font-weight="normal" font-style="normal" fill="#4f4f4f" text-anchor="start">score all 12</text>
<line x1="694" y1="651" x2="714" y2="651" stroke="#1c1c1c" stroke-width="2.2" marker-end="url(#arrow)"/>
<circle cx="728" cy="651" r="13" fill="#c0392b" stroke="#8f2a20" stroke-width="1.6"/>
<g transform="translate(728,651) scale(0.5) translate(-710,-388)"><path d="M 710 370 l 6.5 13 14.5 2.4 -10.5 10 2.5 14.4 -13 -6.8 -13 6.8 2.5 -14.4 -10.5 -10 14.5 -2.4 z" fill="#ffffff"/></g>
<text x="751.5" y="656" font-family="DejaVu Sans, Helvetica, Arial, sans-serif" font-size="19" font-weight="normal" fill="#1c1c1c" text-anchor="start"><tspan  font-style="italic">q</tspan><tspan dy="5" font-size="14" font-style="italic">b</tspan></text>
<path d="M 728 580 L 728 636" fill="none" stroke="#3f8f56" stroke-width="2.2" stroke-dasharray="6,4" marker-end="url(#arrowgrn)"/>
<text x="716" y="606" font-family="DejaVu Sans, Helvetica, Arial, sans-serif" font-size="16" font-weight="normal" font-style="normal" fill="#2f6b40" text-anchor="end">inconclusive</text>
<text x="1280" y="296" font-family="DejaVu Sans, Helvetica, Arial, sans-serif" font-size="22" font-weight="bold" font-style="normal" fill="#1c1c1c" text-anchor="middle">KV Cache (Target)</text>
<text x="1180" y="346" font-family="DejaVu Sans, Helvetica, Arial, sans-serif" font-size="17" font-weight="bold" font-style="normal" fill="#3f8f56" text-anchor="end">accept</text>
<rect x="1190" y="324" width="24" height="32" rx="3" fill="#efb27a" stroke="#a85a20" stroke-width="1.6"/>
<rect x="1194" y="337" width="16" height="11" rx="2" fill="#4a4a4a"/>
<path d="M 1197.0 337 a 5.00 5.00 0 0 1 10.0 0" fill="none" stroke="#4a4a4a" stroke-width="2.4"/>
<circle cx="1202.0" cy="341.9" r="2" fill="#ffffff"/>
<rect x="1216" y="324" width="24" height="32" rx="3" fill="#7fb0dd" stroke="#3c78b4" stroke-width="1.6"/>
<rect x="1242" y="324" width="24" height="32" rx="3" fill="#7fb0dd" stroke="#3c78b4" stroke-width="1.6"/>
<rect x="1268" y="324" width="24" height="32" rx="3" fill="#7fb0dd" stroke="#3c78b4" stroke-width="1.6"/>
<rect x="1294" y="324" width="24" height="32" rx="3" fill="#efb27a" stroke="#a85a20" stroke-width="1.6"/>
<rect x="1320" y="324" width="24" height="32" rx="3" fill="#7fb0dd" stroke="#3c78b4" stroke-width="1.6"/>
<rect x="1346" y="324" width="24" height="32" rx="3" fill="#7fb0dd" stroke="#3c78b4" stroke-width="1.6"/>
<text x="1180" y="554" font-family="DejaVu Sans, Helvetica, Arial, sans-serif" font-size="17" font-weight="bold" font-style="normal" fill="#bf3b2b" text-anchor="end">reject</text>
<rect x="1190" y="532" width="24" height="32" rx="3" fill="#efb27a" stroke="#a85a20" stroke-width="1.6"/>
<rect x="1194" y="545" width="16" height="11" rx="2" fill="#4a4a4a"/>
<path d="M 1197.0 545 a 5.00 5.00 0 0 1 10.0 0" fill="none" stroke="#4a4a4a" stroke-width="2.4"/>
<circle cx="1202.0" cy="550.0" r="2" fill="#ffffff"/>
<rect x="1216" y="532" width="24" height="32" rx="3" fill="#7fb0dd" stroke="#3c78b4" stroke-width="1.6"/>
<rect x="1242" y="532" width="24" height="32" rx="3" fill="#7fb0dd" stroke="#3c78b4" stroke-width="1.6"/>
<rect x="1268" y="532" width="24" height="32" rx="3" fill="#7fb0dd" stroke="#3c78b4" stroke-width="1.6"/>
<rect x="1294" y="532" width="24" height="32" rx="3" fill="#efb27a" stroke="#a85a20" stroke-width="1.6"/>
<rect x="1320" y="532" width="24" height="32" rx="3" fill="#7fb0dd" stroke="#3c78b4" stroke-width="1.6"/>
<rect x="1346" y="532" width="24" height="32" rx="3" fill="#efb27a" stroke="#a85a20" stroke-width="1.6"/>
<rect x="36" y="700" width="22" height="22" rx="5" fill="#5f9fd6" stroke="#3c78b4" stroke-width="1.8"/>
<text x="68" y="716" font-family="DejaVu Sans, Helvetica, Arial, sans-serif" font-size="20" font-weight="bold" font-style="normal" fill="#1c1c1c" text-anchor="start">draft accepted</text>
<text x="68" y="736" font-family="DejaVu Sans, Helvetica, Arial, sans-serif" font-size="18" font-weight="normal" font-style="normal" fill="#4f4f4f" text-anchor="start">fast, lower fidelity</text>
<rect x="318" y="700" width="22" height="22" rx="5" fill="#e8853c" stroke="#a85a20" stroke-width="1.8"/>
<text x="350" y="716" font-family="DejaVu Sans, Helvetica, Arial, sans-serif" font-size="20" font-weight="bold" font-style="normal" fill="#1c1c1c" text-anchor="start">target regenerated</text>
<text x="350" y="736" font-family="DejaVu Sans, Helvetica, Arial, sans-serif" font-size="18" font-weight="normal" font-style="normal" fill="#4f4f4f" text-anchor="start">high quality</text>
</g>
</svg>
